<svg
   xmlns:dc="http://purl.org/dc/elements/1.1/"
   xmlns:cc="http://creativecommons.org/ns#"
   xmlns:rdf="http://www.w3.org/1999/02/22-rdf-syntax-ns#"
   xmlns:svg="http://www.w3.org/2000/svg"
   xmlns="http://www.w3.org/2000/svg"
   xmlns:sodipodi="http://sodipodi.sourceforge.net/DTD/sodipodi-0.dtd"
   xmlns:inkscape="http://www.inkscape.org/namespaces/inkscape"
   width="65.673912"
   height="65.673912"
   viewBox="0 0 65.673913 65.673913"
   id="svg2"
   version="1.1"
   inkscape:version="0.91 r13725"
   sodipodi:docname="community_organizers.svg">
  <defs
     id="defs4" />
  <sodipodi:namedview
     id="base"
     pagecolor="#ffffff"
     bordercolor="#666666"
     borderopacity="1.0"
     inkscape:pageopacity="0"
     inkscape:pageshadow="2"
     inkscape:zoom="8.0494434"
     inkscape:cx="35.235435"
     inkscape:cy="30.197538"
     inkscape:document-units="px"
     inkscape:current-layer="layer1"
     showgrid="false"
     inkscape:window-width="1920"
     inkscape:window-height="1017"
     inkscape:window-x="-8"
     inkscape:window-y="-8"
     inkscape:window-maximized="1"
     units="px"
     fit-margin-top="0"
     fit-margin-left="0"
     fit-margin-right="0"
     fit-margin-bottom="0" />
  <metadata
     id="metadata7">
    <rdf:RDF>
      <cc:Work
         rdf:about="">
        <dc:format>image/svg+xml</dc:format>
        <dc:type
           rdf:resource="http://purl.org/dc/dcmitype/StillImage" />
        <dc:title></dc:title>
      </cc:Work>
    </rdf:RDF>
  </metadata>
  <g
     inkscape:label="Layer 1"
     inkscape:groupmode="layer"
     id="layer1"
     transform="translate(-264.26427,-420.68718)">
    <circle
       style="fill:#595759;fill-opacity:1;"
       id="path4187"
       cx="297.10123"
       cy="453.52414"
       r="29.836956" />
    <g
       id="g4170"
       transform="matrix(0.40986265,0,0,0.40986265,276.36218,433.09165)"
       style="fill:#ffffff"
       inkscape:transform-center-x="-12.691723"
       inkscape:transform-center-y="20.824279">
      <path
         id="path4138"
         d="m 73.6,27.8 c -4.1,0 -7.4,3.3 -7.4,7.4 0,4.1 3.3,7.4 7.4,7.4 4.1,0 7.4,-3.3 7.4,-7.4 0,-4.1 -3.3,-7.4 -7.4,-7.4 z"
         inkscape:connector-curvature="0" />
      <path
         id="path4140"
         d="m 27.8,27.8 c -4.1,0 -7.4,3.3 -7.4,7.4 0,4.1 3.3,7.4 7.4,7.4 4.1,0 7.4,-3.3 7.4,-7.4 0,-4.1 -3.4,-7.4 -7.4,-7.4 z"
         inkscape:connector-curvature="0" />
      <path
         id="path4142"
         d="M 34.3,60.4 33.8,44.5 c 0,-0.1 0,-0.2 0,-0.4 l -12.6,0 c -3.3,0 -5.9,2.7 -5.9,5.9 l 0.5,14.3 c 0,2.5 1.8,4.5 4.2,4.7 l 2.2,27 c 0.2,2.1 3.1,2 3.1,2 l 2.4,0 0,0 2.3,0 c 0,0 2.8,0.1 3.1,-2 l 2.2,-27 c 0.1,0 0.2,-0.1 0.2,-0.1 1.1,-0.2 2.1,-0.8 2.8,-1.7 -2.4,-1.2 -4,-3.8 -4,-6.8 z"
         inkscape:connector-curvature="0" />
      <path
         id="path4144"
         d="m 79.8,44.2 -12.7,0 c -0.1,0 -0.2,0 -0.3,0 0,0.1 0,0.2 0,0.3 l -0.5,16 c 0,2.7 -1.4,5.2 -3.7,6.7 0.8,1 1.9,1.8 3.3,1.9 l 2.2,27 c 0.2,2.1 3.1,2 3.1,2 l 2.4,0 0,0 2.4,0 c 0,0 2.8,0.1 3.1,-2 l 2.2,-27 c 0.1,0 0.2,-0.1 0.2,-0.1 2.2,-0.4 3.9,-2.4 3.9,-4.7 L 85.9,50 C 85.7,46.9 83,44.2 79.8,44.2 Z"
         inkscape:connector-curvature="0" />
      <path
         id="path4146"
         d="m 57.3,37.8 -14.1,0 c -3.7,0 -6.6,3 -6.6,6.6 l 0.5,16 c 0,2.7 2.1,5 4.7,5.3 L 44.2,96 c 0.3,2.4 3.4,2.2 3.4,2.2 l 2.7,0 0,0 2.7,0 c 0,0 3.2,0.2 3.4,-2.2 l 2.4,-30.2 c 0.1,0 0.2,-0.1 0.2,-0.1 2.5,-0.5 4.3,-2.6 4.3,-5.2 l 0.5,-16 C 64,40.8 61,37.8 57.3,37.8 Z"
         inkscape:connector-curvature="0" />
      <path
         id="path4148"
         d="m 50.5,19.5 c -4.6,0 -8.3,3.7 -8.3,8.3 0,4.6 3.7,8.3 8.3,8.3 4.6,0 8.3,-3.7 8.3,-8.3 0,-4.6 -3.7,-8.3 -8.3,-8.3 z"
         inkscape:connector-curvature="0" />
      <path
         id="path4150"
         d="M 67.5,5.1 C 67,4.8 66.4,4.8 65.9,5 l -0.1,0.1 c -0.3,0.2 -0.5,0.4 -0.7,0.7 l -3.8,6.4 c -0.2,0.4 -0.3,0.8 -0.2,1.3 0.1,0.5 0.4,0.8 0.7,1 0.6,0.3 1.2,0.3 1.7,0 0.3,-0.2 0.5,-0.4 0.7,-0.7 L 68,7.4 c 0.2,-0.4 0.3,-0.8 0.2,-1.3 0,-0.3 -0.3,-0.7 -0.7,-1 z"
         inkscape:connector-curvature="0" />
      <path
         id="path4152"
         d="M 32.9,5.1 C 33.3,4.9 34,4.9 34.5,5 l 0.1,0.1 c 0.3,0.2 0.5,0.4 0.7,0.7 l 3.8,6.4 c 0.2,0.4 0.3,0.8 0.2,1.3 -0.1,0.5 -0.4,0.8 -0.7,1 -0.6,0.3 -1.2,0.3 -1.7,0 -0.3,-0.2 -0.5,-0.4 -0.7,-0.7 L 32.4,7.4 C 32.2,7 32.1,6.6 32.2,6.1 c 0,-0.3 0.3,-0.7 0.7,-1 z"
         inkscape:connector-curvature="0" />
      <path
         id="path4154"
         d="m 24.9,22.3 c 0.2,0 0.3,0 0.5,-0.1 0.5,-0.1 0.8,-0.4 1,-0.7 0.5,-0.8 0.2,-1.9 -0.7,-2.3 L 19.3,15.5 C 19,15.3 18.7,15.2 18.5,15.2 l -0.1,0 c -0.6,0 -1,0.4 -1.4,0.8 -0.2,0.4 -0.3,0.8 -0.2,1.3 0.1,0.5 0.4,0.8 0.7,1 L 24,22 c 0.4,0.2 0.7,0.3 0.9,0.3 z"
         inkscape:connector-curvature="0" />
      <path
         id="path4156"
         d="m 84,16.1 c -0.3,-0.5 -0.7,-0.8 -1.4,-0.8 l -0.1,0 c -0.3,0 -0.6,0.1 -0.8,0.3 l -6.4,3.7 c -0.4,0.2 -0.7,0.6 -0.8,1 -0.1,0.5 -0.1,0.9 0.2,1.3 0.3,0.6 0.8,0.8 1.5,0.8 0.3,0 0.6,-0.1 0.8,-0.2 l 6.4,-3.7 c 0.4,-0.2 0.7,-0.6 0.7,-1 0.1,-0.6 0.1,-1.1 -0.1,-1.4 z"
         inkscape:connector-curvature="0" />
      <path
         id="path4158"
         d="m 50.4,1.5 c -0.6,0 -1.1,0.3 -1.4,0.7 l -0.1,0.1 c -0.2,0.3 -0.2,0.6 -0.2,0.8 l -0.1,7.5 c 0,0.5 0.2,0.8 0.5,1.2 0.3,0.4 0.7,0.6 1.2,0.6 0.7,0 1.2,-0.3 1.5,-0.8 0.2,-0.3 0.3,-0.6 0.3,-0.8 L 52.2,3.3 C 52.2,2.8 52,2.5 51.7,2.1 51.3,1.7 50.9,1.5 50.4,1.5 Z"
         inkscape:connector-curvature="0" />
    </g>
  </g>
</svg>